<mxfile host="65bd71144e">
    <diagram id="PReZRusNPnAL_U8CHfb-" name="Page-1">
        <mxGraphModel dx="720" dy="469" grid="1" gridSize="10" guides="1" tooltips="1" connect="1" arrows="1" fold="1" page="1" pageScale="1" pageWidth="850" pageHeight="1100" background="none" math="0" shadow="0">
            <root>
                <mxCell id="0"/>
                <mxCell id="1" parent="0"/>
                <mxCell id="2" value="&lt;table border=&quot;1&quot; width=&quot;100%&quot; height=&quot;100%&quot; cellpadding=&quot;4&quot; style=&quot;width:100%;height:100%;border-collapse:collapse;&quot;&gt;&lt;tbody&gt;&lt;tr&gt;&lt;th align=&quot;center&quot;&gt;Actor&lt;/th&gt;&lt;/tr&gt;&lt;tr&gt;&lt;td align=&quot;center&quot;&gt;Scoket_ID&lt;br&gt;Private_Key&lt;br&gt;Room_code&lt;/td&gt;&lt;/tr&gt;&lt;tr&gt;&lt;td align=&quot;center&quot;&gt;Send_message()&lt;br&gt;Send_file()&lt;br&gt;Join_room()&lt;br&gt;create_room()&lt;br&gt;leave_room()&lt;/td&gt;&lt;/tr&gt;&lt;/tbody&gt;&lt;/table&gt;" style="text;html=1;whiteSpace=wrap;strokeColor=none;fillColor=none;overflow=fill;" parent="1" vertex="1">
                    <mxGeometry x="100" y="100" width="160" height="200" as="geometry"/>
                </mxCell>
                <mxCell id="3" value="&lt;table border=&quot;1&quot; width=&quot;100%&quot; height=&quot;100%&quot; cellpadding=&quot;4&quot; style=&quot;width:100%;height:100%;border-collapse:collapse;&quot;&gt;&lt;tbody&gt;&lt;tr&gt;&lt;th align=&quot;center&quot;&gt;Room&lt;/th&gt;&lt;/tr&gt;&lt;tr&gt;&lt;td align=&quot;center&quot;&gt;Room_code&lt;br&gt;messages_list&lt;br&gt;Manage_files&lt;br&gt;Socket_manager&lt;br&gt;Private_key&lt;/td&gt;&lt;/tr&gt;&lt;tr&gt;&lt;td align=&quot;center&quot;&gt;Encrypt_data()&lt;br&gt;Decrypt_data()&lt;br&gt;&lt;br&gt;&lt;/td&gt;&lt;/tr&gt;&lt;/tbody&gt;&lt;/table&gt;" style="text;html=1;whiteSpace=wrap;strokeColor=none;fillColor=none;overflow=fill;" parent="1" vertex="1">
                    <mxGeometry x="440" y="100" width="160" height="220" as="geometry"/>
                </mxCell>
                <mxCell id="4" value="" style="edgeStyle=entityRelationEdgeStyle;elbow=horizontal;endArrow=classic;html=1;rounded=0;endSize=8;startSize=8;entryX=0.688;entryY=0.25;entryDx=0;entryDy=0;entryPerimeter=0;exitX=0.188;exitY=0.455;exitDx=0;exitDy=0;exitPerimeter=0;" parent="1" source="3" target="2" edge="1">
                    <mxGeometry width="50" height="50" relative="1" as="geometry">
                        <mxPoint x="280" y="240" as="sourcePoint"/>
                        <mxPoint x="390" y="220" as="targetPoint"/>
                    </mxGeometry>
                </mxCell>
                <mxCell id="5" value="" style="edgeStyle=entityRelationEdgeStyle;elbow=horizontal;endArrow=classic;html=1;rounded=0;endSize=8;startSize=8;entryX=0.75;entryY=0.4;entryDx=0;entryDy=0;entryPerimeter=0;exitX=0.25;exitY=0.273;exitDx=0;exitDy=0;exitPerimeter=0;" parent="1" source="3" target="2" edge="1">
                    <mxGeometry width="50" height="50" relative="1" as="geometry">
                        <mxPoint x="469.99999999999994" y="400.1" as="sourcePoint"/>
                        <mxPoint x="209.99999999999991" y="350" as="targetPoint"/>
                    </mxGeometry>
                </mxCell>
                <mxCell id="6" value="" style="edgeStyle=entityRelationEdgeStyle;elbow=horizontal;endArrow=classic;html=1;rounded=0;endSize=8;startSize=8;exitX=0.25;exitY=0.545;exitDx=0;exitDy=0;exitPerimeter=0;entryX=0.75;entryY=0.3;entryDx=0;entryDy=0;entryPerimeter=0;" parent="1" source="3" target="2" edge="1">
                    <mxGeometry width="50" height="50" relative="1" as="geometry">
                        <mxPoint x="360" y="370" as="sourcePoint"/>
                        <mxPoint x="230.07999999999993" y="170" as="targetPoint"/>
                    </mxGeometry>
                </mxCell>
            </root>
        </mxGraphModel>
    </diagram>
</mxfile>